<svg id="deco-layer"
     style="position:fixed;top:0;left:0;width:100%;height:100%;pointer-events:none;z-index:3"
     viewBox="0 0 1200 760" preserveAspectRatio="xMidYMid slice"
     xmlns="http://www.w3.org/2000/svg">

  <g transform="translate(78,72)">
    <circle cx="0" cy="0" r="16" fill="none" stroke="#D9D9D4" stroke-width="1.8" opacity=".65" stroke-linecap="round" stroke-linejoin="round"/>
    <path d="M0,-11 A11,11 0 1 1 0,11 A7.5,11 0 1 0 0,-11 Z" fill="#232327" opacity=".22"/>
    <path d="M0,-9 L0,9 A9,9 0 0 0 0,-9 Z" fill="#A8A8A2" opacity=".2"/>
    <path d="M0,-7 A7,7 0 1 1 0,7 A5,7 0 1 0 0,-7 Z" fill="#1C1C20" opacity=".2"/>
  </g>
  <g transform="translate(44,165)">
    <circle cx="0" cy="0" r="11" fill="none" stroke="#A8A8A2" stroke-width="1.8" opacity=".58" stroke-linecap="round" stroke-linejoin="round"/>
    <path d="M0,-8 A8,8 0 1 1 0,8 A5.4,8 0 1 0 0,-8 Z" fill="#232327" opacity=".2"/>
    <path d="M0,-7 L0,7 A7,7 0 0 0 0,-7 Z" fill="#D9D9D4" opacity=".14"/>
    <path d="M0,-5.5 A5.5,5.5 0 1 1 0,5.5 A4,5.5 0 1 0 0,-5.5 Z" fill="#1C1C20" opacity=".18"/>
  </g>
  <g transform="translate(258,36)">
    <circle cx="0" cy="0" r="9" fill="none" stroke="#D9D9D4" stroke-width="1.5" opacity=".6" stroke-linecap="round" stroke-linejoin="round"/>
    <path d="M0,-6.5 A6.5,6.5 0 1 1 0,6.5 A4.3,6.5 0 1 0 0,-6.5 Z" fill="#232327" opacity=".18"/>
    <path d="M0,-5.5 L0,5.5 A5.5,5.5 0 0 0 0,-5.5 Z" fill="#A8A8A2" opacity=".15"/>
    <path d="M0,-4.5 A4.5,4.5 0 1 1 0,4.5 A3.1,4.5 0 1 0 0,-4.5 Z" fill="#1C1C20" opacity=".16"/>
  </g>
  <g transform="translate(1148,88)">
    <circle cx="0" cy="0" r="14" fill="none" stroke="#D9D9D4" stroke-width="1.8" opacity=".62" stroke-linecap="round" stroke-linejoin="round"/>
    <path d="M0,-10 A10,10 0 1 1 0,10 A6.8,10 0 1 0 0,-10 Z" fill="#232327" opacity=".22"/>
    <path d="M0,-8 L0,8 A8,8 0 0 0 0,-8 Z" fill="#A8A8A2" opacity=".2"/>
    <path d="M0,-7 A7,7 0 1 1 0,7 A5,7 0 1 0 0,-7 Z" fill="#1C1C20" opacity=".18"/>
  </g>
  <g transform="translate(95,668)">
    <circle cx="0" cy="0" r="13" fill="none" stroke="#A8A8A2" stroke-width="1.8" opacity=".56" stroke-linecap="round" stroke-linejoin="round"/>
    <path d="M0,-9 A9,9 0 1 1 0,9 A6.1,9 0 1 0 0,-9 Z" fill="#232327" opacity=".2"/>
    <path d="M0,-8 L0,8 A8,8 0 0 0 0,-8 Z" fill="#D9D9D4" opacity=".14"/>
    <path d="M0,-6.5 A6.5,6.5 0 1 1 0,6.5 A4.7,6.5 0 1 0 0,-6.5 Z" fill="#1C1C20" opacity=".18"/>
  </g>
  <g transform="translate(1085,695)">
    <circle cx="0" cy="0" r="10" fill="none" stroke="#D9D9D4" stroke-width="1.8" opacity=".6" stroke-linecap="round" stroke-linejoin="round"/>
    <path d="M0,-7 A7,7 0 1 1 0,7 A4.8,7 0 1 0 0,-7 Z" fill="#232327" opacity=".2"/>
    <path d="M0,-6 L0,6 A6,6 0 0 0 0,-6 Z" fill="#A8A8A2" opacity=".14"/>
    <path d="M0,-5 A5,5 0 1 1 0,5 A3.5,5 0 1 0 0,-5 Z" fill="#1C1C20" opacity=".18"/>
  </g>
  <g transform="translate(590,738)">
    <circle cx="0" cy="0" r="9" fill="none" stroke="#A8A8A2" stroke-width="1.5" opacity=".58" stroke-linecap="round" stroke-linejoin="round"/>
    <path d="M0,-6.5 A6.5,6.5 0 1 1 0,6.5 A4.5,6.5 0 1 0 0,-6.5 Z" fill="#232327" opacity=".18"/>
    <path d="M0,-5.5 L0,5.5 A5.5,5.5 0 0 0 0,-5.5 Z" fill="#D9D9D4" opacity=".13"/>
    <path d="M0,-4.5 A4.5,4.5 0 1 1 0,4.5 A3.2,4.5 0 1 0 0,-4.5 Z" fill="#1C1C20" opacity=".17"/>
  </g>

  <g transform="translate(1160,420)">
    <g transform="rotate(-16)">
      <polygon points="0,-10 5.5,-5.5 5.5,5.5 0,10 -5.5,5.5 -5.5,-5.5" fill="#232327" opacity=".2" stroke="#D9D9D4" stroke-width="1.4" stroke-linecap="round" stroke-linejoin="round"/>
      <line x1="0" y1="-10" x2="0" y2="10" stroke="#6E6E73" stroke-width="1.4" opacity=".55" stroke-linecap="round"/>
      <line x1="5.5" y1="-5.5" x2="-5.5" y2="5.5" stroke="#6E6E73" stroke-width="1.4" opacity=".55" stroke-linecap="round"/>
    </g>
    <g transform="translate(10,0) rotate(12)">
      <polygon points="0,-10 5.5,-5.5 5.5,5.5 0,10 -5.5,5.5 -5.5,-5.5" fill="#1C1C20" opacity=".18" stroke="#A8A8A2" stroke-width="1.4" stroke-linecap="round" stroke-linejoin="round"/>
      <line x1="0" y1="-10" x2="0" y2="10" stroke="#6E6E73" stroke-width="1.4" opacity=".5" stroke-linecap="round"/>
      <line x1="5.5" y1="5.5" x2="-5.5" y2="-5.5" stroke="#6E6E73" stroke-width="1.4" opacity=".5" stroke-linecap="round"/>
    </g>
    <g transform="translate(-10,0) rotate(28)">
      <polygon points="0,-10 5.5,-5.5 5.5,5.5 0,10 -5.5,5.5 -5.5,-5.5" fill="#232327" opacity=".16" stroke="#D9D9D4" stroke-width="1.4" stroke-linecap="round" stroke-linejoin="round"/>
      <line x1="5.5" y1="-5.5" x2="-5.5" y2="5.5" stroke="#6E6E73" stroke-width="1.4" opacity=".5" stroke-linecap="round"/>
      <line x1="5.5" y1="5.5" x2="-5.5" y2="-5.5" stroke="#6E6E73" stroke-width="1.4" opacity=".5" stroke-linecap="round"/>
    </g>
  </g>
  <g transform="translate(38,380)">
    <g transform="rotate(-10)">
      <polygon points="0,-9 5,-5 5,5 0,9 -5,5 -5,-5" fill="#232327" opacity=".2" stroke="#A8A8A2" stroke-width="1.4" stroke-linecap="round" stroke-linejoin="round"/>
      <line x1="0" y1="-9" x2="0" y2="9" stroke="#6E6E73" stroke-width="1.4" opacity=".52" stroke-linecap="round"/>
      <line x1="5" y1="-5" x2="-5" y2="5" stroke="#6E6E73" stroke-width="1.4" opacity=".52" stroke-linecap="round"/>
    </g>
    <g transform="translate(9,0) rotate(18)">
      <polygon points="0,-9 5,-5 5,5 0,9 -5,5 -5,-5" fill="#1C1C20" opacity=".16" stroke="#D9D9D4" stroke-width="1.4" stroke-linecap="round" stroke-linejoin="round"/>
      <line x1="5" y1="5" x2="-5" y2="-5" stroke="#6E6E73" stroke-width="1.4" opacity=".5" stroke-linecap="round"/>
      <line x1="0" y1="-9" x2="0" y2="9" stroke="#6E6E73" stroke-width="1.4" opacity=".5" stroke-linecap="round"/>
    </g>
  </g>

  <path d="M0,-13 L2,-2 L13,0 L2,2 L0,13 L-2,2 L-13,0 L-2,-2 Z"
        transform="translate(175,120)" fill="none" stroke="#D9D9D4" stroke-width="1.8" opacity=".62" stroke-linecap="round" stroke-linejoin="round"/>
  <path d="M0,-10 L1.5,-1.5 L10,0 L1.5,1.5 L0,10 L-1.5,1.5 L-10,0 L-1.5,-1.5 Z"
        transform="translate(1040,50)" fill="none" stroke="#A8A8A2" stroke-width="1.5" opacity=".58" stroke-linecap="round" stroke-linejoin="round"/>
  <path d="M0,-8 L1.2,-1.2 L8,0 L1.2,1.2 L0,8 L-1.2,1.2 L-8,0 L-1.2,-1.2 Z"
        transform="translate(340,700)" fill="#232327" opacity=".2" stroke="#D9D9D4" stroke-width="1.5" stroke-linecap="round" stroke-linejoin="round"/>
  <path d="M0,-11 L1.7,-1.7 L11,0 L1.7,1.7 L0,11 L-1.7,1.7 L-11,0 L-1.7,-1.7 Z"
        transform="translate(870,710)" fill="none" stroke="#D9D9D4" stroke-width="1.5" opacity=".55" stroke-linecap="round" stroke-linejoin="round"/>
  <path d="M0,-7 L1.1,-1.1 L7,0 L1.1,1.1 L0,7 L-1.1,1.1 L-7,0 L-1.1,-1.1 Z"
        transform="translate(1110,310)" fill="#1C1C20" opacity=".2" stroke="#A8A8A2" stroke-width="1.5" stroke-linecap="round" stroke-linejoin="round"/>
  <path d="M0,-9 L1.4,-1.4 L9,0 L1.4,1.4 L0,9 L-1.4,1.4 L-9,0 L-1.4,-1.4 Z"
        transform="translate(140,540)" fill="none" stroke="#A8A8A2" stroke-width="1.5" opacity=".52" stroke-linecap="round" stroke-linejoin="round"/>
  <path d="M0,-6 L.9,-.9 L6,0 L.9,.9 L0,6 L-.9,.9 L-6,0 L-.9,-.9 Z"
        transform="translate(700,55)" fill="#232327" opacity=".17" stroke="#6E6E73" stroke-width="1.4" stroke-linecap="round" stroke-linejoin="round"/>
  <path d="M0,-8 L1.2,-1.2 L8,0 L1.2,1.2 L0,8 L-1.2,1.2 L-8,0 L-1.2,-1.2 Z"
        transform="translate(440,30)" fill="none" stroke="#D9D9D4" stroke-width="1.4" opacity=".5" stroke-linecap="round" stroke-linejoin="round"/>

  <g transform="translate(1020,195) scale(.9)" opacity=".62">
    <line x1="-10" y1="-7" x2="-2" y2="-2" stroke="#A8A8A2" stroke-width="1.8" stroke-linecap="round"/>
    <line x1="-2" y1="-2" x2="6" y2="3" stroke="#A8A8A2" stroke-width="1.8" stroke-linecap="round"/>
    <line x1="6" y1="3" x2="11" y2="10" stroke="#A8A8A2" stroke-width="1.8" stroke-linecap="round"/>
    <line x1="-2" y1="-2" x2="4" y2="-10" stroke="#A8A8A2" stroke-width="1.8" stroke-linecap="round"/>
    <circle cx="-10" cy="-7" r="1.6" fill="#D9D9D4" opacity=".24" stroke="#D9D9D4" stroke-width="1.8" stroke-linecap="round" stroke-linejoin="round"/>
    <circle cx="-2" cy="-2" r="2.1" fill="#232327" opacity=".22" stroke="#D9D9D4" stroke-width="1.8" stroke-linecap="round" stroke-linejoin="round"/>
    <circle cx="6" cy="3" r="1.8" fill="#1C1C20" opacity=".2" stroke="#A8A8A2" stroke-width="1.8" stroke-linecap="round" stroke-linejoin="round"/>
    <circle cx="11" cy="10" r="1.6" fill="#232327" opacity=".18" stroke="#A8A8A2" stroke-width="1.8" stroke-linecap="round" stroke-linejoin="round"/>
    <circle cx="4" cy="-10" r="2.4" fill="#232327" opacity=".22" stroke="#D9D9D4" stroke-width="1.8" stroke-linecap="round" stroke-linejoin="round"/>
  </g>
  <g transform="translate(200,690) scale(.75)" opacity=".56">
    <line x1="-11" y1="-8" x2="-4" y2="-2" stroke="#6E6E73" stroke-width="1.6" stroke-linecap="round"/>
    <line x1="-4" y1="-2" x2="3" y2="4" stroke="#6E6E73" stroke-width="1.6" stroke-linecap="round"/>
    <line x1="3" y1="4" x2="10" y2="8" stroke="#6E6E73" stroke-width="1.6" stroke-linecap="round"/>
    <line x1="-4" y1="-2" x2="5" y2="-10" stroke="#6E6E73" stroke-width="1.6" stroke-linecap="round"/>
    <circle cx="-11" cy="-8" r="1.7" fill="#232327" opacity=".2" stroke="#A8A8A2" stroke-width="1.6" stroke-linecap="round" stroke-linejoin="round"/>
    <circle cx="-4" cy="-2" r="2.2" fill="#1C1C20" opacity=".22" stroke="#D9D9D4" stroke-width="1.6" stroke-linecap="round" stroke-linejoin="round"/>
    <circle cx="3" cy="4" r="1.8" fill="#232327" opacity=".18" stroke="#A8A8A2" stroke-width="1.6" stroke-linecap="round" stroke-linejoin="round"/>
    <circle cx="10" cy="8" r="1.7" fill="#1C1C20" opacity=".17" stroke="#A8A8A2" stroke-width="1.6" stroke-linecap="round" stroke-linejoin="round"/>
    <circle cx="5" cy="-10" r="2.5" fill="#232327" opacity=".22" stroke="#D9D9D4" stroke-width="1.6" stroke-linecap="round" stroke-linejoin="round"/>
  </g>
  <g transform="translate(490,720) scale(.6)" opacity=".52">
    <line x1="-12" y1="-6" x2="-4" y2="-1" stroke="#6E6E73" stroke-width="1.5" stroke-linecap="round"/>
    <line x1="-4" y1="-1" x2="4" y2="3" stroke="#6E6E73" stroke-width="1.5" stroke-linecap="round"/>
    <line x1="4" y1="3" x2="10" y2="9" stroke="#6E6E73" stroke-width="1.5" stroke-linecap="round"/>
    <circle cx="-12" cy="-6" r="1.8" fill="#232327" opacity=".2" stroke="#A8A8A2" stroke-width="1.5" stroke-linecap="round" stroke-linejoin="round"/>
    <circle cx="-4" cy="-1" r="2.2" fill="#1C1C20" opacity=".2" stroke="#D9D9D4" stroke-width="1.5" stroke-linecap="round" stroke-linejoin="round"/>
    <circle cx="4" cy="3" r="1.8" fill="#232327" opacity=".18" stroke="#A8A8A2" stroke-width="1.5" stroke-linecap="round" stroke-linejoin="round"/>
    <circle cx="10" cy="9" r="1.7" fill="#1C1C20" opacity=".16" stroke="#A8A8A2" stroke-width="1.5" stroke-linecap="round" stroke-linejoin="round"/>
  </g>
  <g transform="translate(1175,560) scale(.7)" opacity=".56">
    <line x1="-10" y1="-9" x2="-2" y2="-4" stroke="#6E6E73" stroke-width="1.5" stroke-linecap="round"/>
    <line x1="-2" y1="-4" x2="5" y2="2" stroke="#6E6E73" stroke-width="1.5" stroke-linecap="round"/>
    <line x1="5" y1="2" x2="11" y2="9" stroke="#6E6E73" stroke-width="1.5" stroke-linecap="round"/>
    <line x1="-2" y1="-4" x2="7" y2="-11" stroke="#6E6E73" stroke-width="1.5" stroke-linecap="round"/>
    <circle cx="-10" cy="-9" r="1.6" fill="#232327" opacity=".2" stroke="#A8A8A2" stroke-width="1.5" stroke-linecap="round" stroke-linejoin="round"/>
    <circle cx="-2" cy="-4" r="2.3" fill="#1C1C20" opacity=".22" stroke="#D9D9D4" stroke-width="1.5" stroke-linecap="round" stroke-linejoin="round"/>
    <circle cx="5" cy="2" r="1.8" fill="#232327" opacity=".18" stroke="#A8A8A2" stroke-width="1.5" stroke-linecap="round" stroke-linejoin="round"/>
    <circle cx="11" cy="9" r="1.6" fill="#1C1C20" opacity=".16" stroke="#A8A8A2" stroke-width="1.5" stroke-linecap="round" stroke-linejoin="round"/>
    <circle cx="7" cy="-11" r="2.5" fill="#232327" opacity=".22" stroke="#D9D9D4" stroke-width="1.5" stroke-linecap="round" stroke-linejoin="round"/>
  </g>
  <g transform="translate(60,290) scale(.65)" opacity=".6">
    <line x1="-12" y1="-8" x2="-4" y2="-3" stroke="#A8A8A2" stroke-width="1.5" stroke-linecap="round"/>
    <line x1="-4" y1="-3" x2="4" y2="2" stroke="#A8A8A2" stroke-width="1.5" stroke-linecap="round"/>
    <line x1="4" y1="2" x2="10" y2="10" stroke="#A8A8A2" stroke-width="1.5" stroke-linecap="round"/>
    <circle cx="-12" cy="-8" r="1.7" fill="#232327" opacity=".2" stroke="#D9D9D4" stroke-width="1.5" stroke-linecap="round" stroke-linejoin="round"/>
    <circle cx="-4" cy="-3" r="2.2" fill="#1C1C20" opacity=".22" stroke="#D9D9D4" stroke-width="1.5" stroke-linecap="round" stroke-linejoin="round"/>
    <circle cx="4" cy="2" r="1.8" fill="#232327" opacity=".18" stroke="#A8A8A2" stroke-width="1.5" stroke-linecap="round" stroke-linejoin="round"/>
    <circle cx="10" cy="10" r="1.7" fill="#1C1C20" opacity=".16" stroke="#A8A8A2" stroke-width="1.5" stroke-linecap="round" stroke-linejoin="round"/>
  </g>

  <g transform="translate(330,80) scale(.9)" opacity=".66">
    <rect x="-12" y="-12" width="24" height="16" rx="2" ry="2" fill="none" stroke="#D9D9D4" stroke-width="2" stroke-linecap="round" stroke-linejoin="round"/>
    <circle cx="-6" cy="-4" r="3.2" fill="none" stroke="#A8A8A2" stroke-width="2" stroke-linecap="round" stroke-linejoin="round"/>
    <circle cx="6" cy="-4" r="3.2" fill="none" stroke="#A8A8A2" stroke-width="2" stroke-linecap="round" stroke-linejoin="round"/>
    <rect x="-8" y="1" width="16" height="2.6" fill="none" stroke="#6E6E73" stroke-width="2" stroke-linecap="round" stroke-linejoin="round"/>
  </g>
  <g transform="translate(905,55) scale(.75)" opacity=".62">
    <rect x="-10" y="-10" width="20" height="20" rx="1.5" ry="1.5" fill="none" stroke="#D9D9D4" stroke-width="1.8" stroke-linecap="round" stroke-linejoin="round"/>
    <rect x="-6" y="-10" width="12" height="5" fill="none" stroke="#A8A8A2" stroke-width="1.8" stroke-linecap="round" stroke-linejoin="round"/>
    <circle cx="0" cy="1" r="2.4" fill="none" stroke="#A8A8A2" stroke-width="1.8" stroke-linecap="round" stroke-linejoin="round"/>
    <path d="M10,-2 L6,-2 L10,2 Z" fill="none" stroke="#6E6E73" stroke-width="1.8" stroke-linecap="round" stroke-linejoin="round"/>
  </g>
  <g transform="translate(55,480) scale(.8)" opacity=".55">
    <rect x="-12" y="-12" width="24" height="16" rx="2" ry="2" fill="none" stroke="#A8A8A2" stroke-width="1.8" stroke-linecap="round" stroke-linejoin="round"/>
    <circle cx="-6" cy="-4" r="3.2" fill="none" stroke="#6E6E73" stroke-width="1.8" stroke-linecap="round" stroke-linejoin="round"/>
    <circle cx="6" cy="-4" r="3.2" fill="none" stroke="#6E6E73" stroke-width="1.8" stroke-linecap="round" stroke-linejoin="round"/>
    <rect x="-8" y="1" width="16" height="2.6" fill="none" stroke="#6E6E73" stroke-width="1.8" stroke-linecap="round" stroke-linejoin="round"/>
  </g>
  <g transform="translate(1140,640) scale(.85)" opacity=".58">
    <rect x="-10" y="-10" width="20" height="20" rx="1.5" ry="1.5" fill="none" stroke="#D9D9D4" stroke-width="1.8" stroke-linecap="round" stroke-linejoin="round"/>
    <rect x="-6" y="-10" width="12" height="5" fill="none" stroke="#A8A8A2" stroke-width="1.8" stroke-linecap="round" stroke-linejoin="round"/>
    <circle cx="0" cy="1" r="2.4" fill="none" stroke="#A8A8A2" stroke-width="1.8" stroke-linecap="round" stroke-linejoin="round"/>
    <path d="M10,-2 L6,-2 L10,2 Z" fill="none" stroke="#6E6E73" stroke-width="1.8" stroke-linecap="round" stroke-linejoin="round"/>
  </g>
  <g transform="translate(760,738) scale(.7)" opacity=".52">
    <rect x="-12" y="-12" width="24" height="16" rx="2" ry="2" fill="none" stroke="#A8A8A2" stroke-width="1.8" stroke-linecap="round" stroke-linejoin="round"/>
    <circle cx="-6" cy="-4" r="3.2" fill="none" stroke="#6E6E73" stroke-width="1.8" stroke-linecap="round" stroke-linejoin="round"/>
    <circle cx="6" cy="-4" r="3.2" fill="none" stroke="#6E6E73" stroke-width="1.8" stroke-linecap="round" stroke-linejoin="round"/>
    <rect x="-8" y="1" width="16" height="2.6" fill="none" stroke="#6E6E73" stroke-width="1.8" stroke-linecap="round" stroke-linejoin="round"/>
  </g>

  <circle cx="148" cy="35"   r="4"   fill="#232327" opacity=".2" stroke="#D9D9D4" stroke-width="1.4" stroke-linecap="round" stroke-linejoin="round"/>
  <circle cx="1068" cy="145" r="3.5" fill="#1C1C20" opacity=".18" stroke="#A8A8A2" stroke-width="1.4" stroke-linecap="round" stroke-linejoin="round"/>
  <g opacity=".55">
    <circle cx="490" cy="18" r="3" fill="#232327" opacity=".2" stroke="#D9D9D4" stroke-width="1.4" stroke-linecap="round" stroke-linejoin="round"/>
    <line x1="487" y1="18" x2="493" y2="18" stroke="#A8A8A2" stroke-width="1.4" stroke-linecap="round"/>
    <line x1="490" y1="15" x2="490" y2="21" stroke="#A8A8A2" stroke-width="1.4" stroke-linecap="round"/>
  </g>
  <circle cx="720" cy="742"  r="4"   fill="#1C1C20" opacity=".2" stroke="#A8A8A2" stroke-width="1.4" stroke-linecap="round" stroke-linejoin="round"/>
  <g opacity=".58">
    <circle cx="1195" cy="220" r="3" fill="#232327" opacity=".2" stroke="#D9D9D4" stroke-width="1.4" stroke-linecap="round" stroke-linejoin="round"/>
    <line x1="1192" y1="220" x2="1198" y2="220" stroke="#A8A8A2" stroke-width="1.4" stroke-linecap="round"/>
    <line x1="1195" y1="217" x2="1195" y2="223" stroke="#A8A8A2" stroke-width="1.4" stroke-linecap="round"/>
  </g>
  <circle cx="25" cy="600"   r="3.5" fill="#1C1C20" opacity=".18" stroke="#A8A8A2" stroke-width="1.4" stroke-linecap="round" stroke-linejoin="round"/>
  <circle cx="960" cy="745"  r="3"   fill="#232327" opacity=".2" stroke="#D9D9D4" stroke-width="1.4" stroke-linecap="round" stroke-linejoin="round"/>

  <g transform="translate(1045,718)" opacity=".58">
    <ellipse cx="-8" cy="0" rx="5" ry="8" fill="#232327" opacity=".2" stroke="#A8A8A2" stroke-width="1.4" transform="rotate(-30,-8,0)" stroke-linecap="round" stroke-linejoin="round"/>
    <ellipse cx="0" cy="-6" rx="5" ry="8" fill="#1C1C20" opacity=".18" stroke="#D9D9D4" stroke-width="1.4" transform="rotate(10,0,-6)" stroke-linecap="round" stroke-linejoin="round"/>
    <ellipse cx="8" cy="2"  rx="5" ry="8" fill="#232327" opacity=".2" stroke="#A8A8A2" stroke-width="1.4" transform="rotate(40,8,2)" stroke-linecap="round" stroke-linejoin="round"/>
  </g>
  <g opacity=".48">
    <circle cx="1064" cy="712" r="3.5" fill="#D9D9D4" opacity=".2"/>
    <circle cx="1069" cy="708" r="2.8" fill="#D9D9D4" opacity=".16"/>
    <circle cx="1073" cy="704" r="2.2" fill="#D9D9D4" opacity=".13"/>
    <circle cx="1077" cy="700" r="1.7" fill="#D9D9D4" opacity=".1"/>
    <circle cx="1080" cy="697" r="1.2" fill="#D9D9D4" opacity=".08"/>
  </g>
  <g transform="translate(158,728)" opacity=".54">
    <ellipse cx="-7" cy="0" rx="4.5" ry="7" fill="#232327" opacity=".2" stroke="#A8A8A2" stroke-width="1.4" transform="rotate(-25,-7,0)" stroke-linecap="round" stroke-linejoin="round"/>
    <ellipse cx="0" cy="-5" rx="4.5" ry="7" fill="#1C1C20" opacity=".18" stroke="#D9D9D4" stroke-width="1.4" transform="rotate(15,0,-5)" stroke-linecap="round" stroke-linejoin="round"/>
    <ellipse cx="7" cy="2"  rx="4.5" ry="7" fill="#232327" opacity=".2" stroke="#A8A8A2" stroke-width="1.4" transform="rotate(45,7,2)" stroke-linecap="round" stroke-linejoin="round"/>
  </g>
  <g opacity=".46">
    <circle cx="177" cy="713" r="3.2" fill="#D9D9D4" opacity=".2"/>
    <circle cx="181" cy="709" r="2.5" fill="#D9D9D4" opacity=".16"/>
    <circle cx="185" cy="705" r="2" fill="#D9D9D4" opacity=".13"/>
    <circle cx="188" cy="702" r="1.5" fill="#D9D9D4" opacity=".1"/>
    <circle cx="191" cy="699" r="1.1" fill="#D9D9D4" opacity=".08"/>
  </g>

  <g transform="translate(470,62)" opacity=".5">
    <line x1="-7" y1="0" x2="7" y2="0" stroke="#A8A8A2" stroke-width="2" stroke-linecap="round"/>
    <line x1="0" y1="-7" x2="0" y2="7" stroke="#A8A8A2" stroke-width="2" stroke-linecap="round"/>
  </g>
  <g transform="translate(840,40)" opacity=".45">
    <line x1="-6" y1="0" x2="6" y2="0" stroke="#6E6E73" stroke-width="2" stroke-linecap="round"/>
    <line x1="0" y1="-6" x2="0" y2="6" stroke="#6E6E73" stroke-width="2" stroke-linecap="round"/>
  </g>
  <g transform="translate(1130,490)" opacity=".5">
    <line x1="-6" y1="0" x2="6" y2="0" stroke="#A8A8A2" stroke-width="2" stroke-linecap="round"/>
    <line x1="0" y1="-6" x2="0" y2="6" stroke="#A8A8A2" stroke-width="2" stroke-linecap="round"/>
  </g>
  <g transform="translate(28,155)" opacity=".45">
    <line x1="-5" y1="0" x2="5" y2="0" stroke="#6E6E73" stroke-width="1.8" stroke-linecap="round"/>
    <line x1="0" y1="-5" x2="0" y2="5" stroke="#6E6E73" stroke-width="1.8" stroke-linecap="round"/>
  </g>

  <g transform="translate(148,35)" opacity=".46">
    <circle cx="0" cy="0" r="7" fill="none" stroke="#D9D9D4" stroke-width="1.5" stroke-linecap="round" stroke-linejoin="round"/>
    <ellipse cx="0" cy="0" rx="11" ry="4" fill="none" stroke="#A8A8A2" stroke-width="1.5" transform="rotate(-22)" stroke-linecap="round" stroke-linejoin="round"/>
  </g>
  <g transform="translate(25,600)" opacity=".42">
    <circle cx="0" cy="0" r="6" fill="none" stroke="#A8A8A2" stroke-width="1.5" stroke-linecap="round" stroke-linejoin="round"/>
    <ellipse cx="0" cy="0" rx="10" ry="3.5" fill="none" stroke="#6E6E73" stroke-width="1.5" transform="rotate(18)" stroke-linecap="round" stroke-linejoin="round"/>
  </g>
  <g transform="translate(1068,145)" opacity=".44">
    <circle cx="0" cy="0" r="6" fill="none" stroke="#D9D9D4" stroke-width="1.5" stroke-linecap="round" stroke-linejoin="round"/>
    <ellipse cx="0" cy="0" rx="10" ry="3.5" fill="none" stroke="#A8A8A2" stroke-width="1.5" transform="rotate(-28)" stroke-linecap="round" stroke-linejoin="round"/>
  </g>
  <g transform="translate(960,745)" opacity=".42">
    <line x1="0" y1="-7" x2="0" y2="7" stroke="#D9D9D4" stroke-width="1.4" stroke-linecap="round"/>
    <line x1="-6.1" y1="-3.5" x2="6.1" y2="3.5" stroke="#D9D9D4" stroke-width="1.4" stroke-linecap="round"/>
    <line x1="-6.1" y1="3.5" x2="6.1" y2="-3.5" stroke="#D9D9D4" stroke-width="1.4" stroke-linecap="round"/>
    <line x1="0" y1="-7" x2="-1.4" y2="-5.2" stroke="#A8A8A2" stroke-width="1.4" stroke-linecap="round"/>
    <line x1="0" y1="-7" x2="1.4" y2="-5.2" stroke="#A8A8A2" stroke-width="1.4" stroke-linecap="round"/>
    <line x1="6.1" y1="-3.5" x2="4" y2="-3.8" stroke="#A8A8A2" stroke-width="1.4" stroke-linecap="round"/>
    <line x1="6.1" y1="-3.5" x2="4.9" y2="-1.7" stroke="#A8A8A2" stroke-width="1.4" stroke-linecap="round"/>
    <line x1="6.1" y1="3.5" x2="4" y2="3.8" stroke="#A8A8A2" stroke-width="1.4" stroke-linecap="round"/>
    <line x1="6.1" y1="3.5" x2="4.9" y2="1.7" stroke="#A8A8A2" stroke-width="1.4" stroke-linecap="round"/>
    <line x1="0" y1="7" x2="-1.4" y2="5.2" stroke="#A8A8A2" stroke-width="1.4" stroke-linecap="round"/>
    <line x1="0" y1="7" x2="1.4" y2="5.2" stroke="#A8A8A2" stroke-width="1.4" stroke-linecap="round"/>
    <line x1="-6.1" y1="3.5" x2="-4" y2="3.8" stroke="#A8A8A2" stroke-width="1.4" stroke-linecap="round"/>
    <line x1="-6.1" y1="3.5" x2="-4.9" y2="1.7" stroke="#A8A8A2" stroke-width="1.4" stroke-linecap="round"/>
    <line x1="-6.1" y1="-3.5" x2="-4" y2="-3.8" stroke="#A8A8A2" stroke-width="1.4" stroke-linecap="round"/>
    <line x1="-6.1" y1="-3.5" x2="-4.9" y2="-1.7" stroke="#A8A8A2" stroke-width="1.4" stroke-linecap="round"/>
  </g>

</svg>
