<svg id="deco-layer"
     style="position:fixed;top:0;left:0;width:100%;height:100%;pointer-events:none;z-index:3"
     viewBox="0 0 1200 760" preserveAspectRatio="xMidYMid slice"
     xmlns="http://www.w3.org/2000/svg">

  <g transform="translate(78,72)">
    <ellipse cx="0" cy="4" rx="20" ry="11" fill="#F5ECD7" fill-opacity=".26" stroke="#CDB9A3" stroke-opacity=".68" stroke-width="1.4" stroke-linecap="round" stroke-linejoin="round"/>
    <path d="M-11,-4 Q-10,7 -7,10 L7,10 Q10,7 11,-4 Z" fill="#E8D5B0" fill-opacity=".28" stroke="#8B5E3C" stroke-opacity=".68" stroke-width="1.4" stroke-linecap="round" stroke-linejoin="round"/>
    <ellipse cx="0" cy="-4" rx="11" ry="3.6" fill="#F5ECD7" fill-opacity=".3" stroke="#8B5E3C" stroke-opacity=".68" stroke-width="1.3" stroke-linecap="round"/>
    <path d="M12,-2 C18,-4 20,7 13,8" fill="none" stroke="#8B5E3C" stroke-width="1.3" opacity=".68" stroke-linecap="round"/>
    <path d="M-4,-15 C-7,-20 -3,-23 -1,-27" fill="none" stroke="#C68642" stroke-width="1.2" opacity=".65" stroke-linecap="round"/>
    <path d="M2,-14 C-1,-18 3,-21 5,-25" fill="none" stroke="#C68642" stroke-width="1.2" opacity=".65" stroke-linecap="round"/>
  </g>

  <g transform="translate(44,165) rotate(-18)">
    <ellipse cx="-6" cy="0" rx="7.5" ry="5" fill="#E8D5B0" fill-opacity=".26" stroke="#8B5E3C" stroke-opacity=".68" stroke-width="1.3" stroke-linecap="round"/>
    <path d="M-9,0 C-7,-3 -5,3 -3,0" fill="none" stroke="#8B5E3C" stroke-width=".9" opacity=".7" stroke-linecap="round"/>
    <ellipse cx="7" cy="1" rx="7.5" ry="5" fill="#F5ECD7" fill-opacity=".24" stroke="#8B5E3C" stroke-opacity=".68" stroke-width="1.3" stroke-linecap="round"/>
    <path d="M4,1 C6,-2 8,4 10,1" fill="none" stroke="#8B5E3C" stroke-width=".9" opacity=".7" stroke-linecap="round"/>
  </g>

  <g transform="translate(258,36) scale(.9)">
    <polygon points="0,-10 8,-5 8,5 0,10 -8,5 -8,-5" fill="none" stroke="#CDB9A3" stroke-width="1.4" opacity=".68" stroke-linecap="round" stroke-linejoin="round"/>
    <polygon points="12,-10 20,-5 20,5 12,10 4,5 4,-5" fill="none" stroke="#A9B99A" stroke-width="1.3" opacity=".63" stroke-linecap="round" stroke-linejoin="round"/>
    <polygon points="-12,0 -4,5 -4,15 -12,20 -20,15 -20,5" fill="none" stroke="#C68642" stroke-width="1.3" opacity=".64" stroke-linecap="round" stroke-linejoin="round"/>
  </g>

  <g transform="translate(1148,88)">
    <ellipse cx="0" cy="4" rx="18" ry="10" fill="#F5ECD7" fill-opacity=".24" stroke="#CDB9A3" stroke-opacity=".68" stroke-width="1.4" stroke-linecap="round" stroke-linejoin="round"/>
    <path d="M-10,-4 Q-9,6 -6,9 L6,9 Q9,6 10,-4 Z" fill="#E8D5B0" fill-opacity=".27" stroke="#8B5E3C" stroke-opacity=".68" stroke-width="1.4" stroke-linecap="round" stroke-linejoin="round"/>
    <ellipse cx="0" cy="-4" rx="10" ry="3.3" fill="#F5ECD7" fill-opacity=".3" stroke="#8B5E3C" stroke-opacity=".68" stroke-width="1.3" stroke-linecap="round"/>
    <path d="M11,-2 C16,-4 18,6 12,7" fill="none" stroke="#8B5E3C" stroke-width="1.3" opacity=".7" stroke-linecap="round"/>
    <path d="M-3,-14 C-6,-18 -3,-21 -2,-24" fill="none" stroke="#C68642" stroke-width="1.2" opacity=".66" stroke-linecap="round"/>
    <path d="M3,-13 C1,-17 4,-20 6,-23" fill="none" stroke="#C68642" stroke-width="1.2" opacity=".66" stroke-linecap="round"/>
  </g>

  <g transform="translate(95,668)">
    <rect x="-11" y="-13" width="22" height="26" rx="2" fill="#F5ECD7" fill-opacity=".26" stroke="#8B5E3C" stroke-opacity=".68" stroke-width="1.4" stroke-linecap="round" stroke-linejoin="round"/>
    <rect x="-11" y="-13" width="4" height="26" rx="1" fill="#CDB9A3" fill-opacity=".25" stroke="#8B5E3C" stroke-opacity=".68" stroke-width="1.2" stroke-linecap="round"/>
    <line x1="-4" y1="-5" x2="7" y2="-5" stroke="#8B5E3C" stroke-width=".9" opacity=".66" stroke-linecap="round"/>
    <line x1="-4" y1="0" x2="7" y2="0" stroke="#8B5E3C" stroke-width=".9" opacity=".66" stroke-linecap="round"/>
    <line x1="-4" y1="5" x2="7" y2="5" stroke="#8B5E3C" stroke-width=".9" opacity=".66" stroke-linecap="round"/>
  </g>

  <g transform="translate(1085,695) rotate(18)">
    <ellipse cx="0" cy="0" rx="7.5" ry="5" fill="#E8D5B0" fill-opacity=".25" stroke="#8B5E3C" stroke-opacity=".68" stroke-width="1.3" stroke-linecap="round"/>
    <path d="M-3,0 C-1,-3 1,3 3,0" fill="none" stroke="#8B5E3C" stroke-width=".9" opacity=".7" stroke-linecap="round"/>
  </g>

  <g transform="translate(590,738)">
    <ellipse cx="0" cy="4" rx="16" ry="9" fill="#F5ECD7" fill-opacity=".24" stroke="#CDB9A3" stroke-opacity=".68" stroke-width="1.4" stroke-linecap="round" stroke-linejoin="round"/>
    <path d="M-9,-3 Q-8,5 -6,8 L6,8 Q8,5 9,-3 Z" fill="#E8D5B0" fill-opacity=".27" stroke="#8B5E3C" stroke-opacity=".68" stroke-width="1.4" stroke-linecap="round" stroke-linejoin="round"/>
    <ellipse cx="0" cy="-3" rx="9" ry="3" fill="#F5ECD7" fill-opacity=".29" stroke="#8B5E3C" stroke-opacity=".68" stroke-width="1.3" stroke-linecap="round"/>
    <path d="M10,-1 C14,-3 16,5 10,6" fill="none" stroke="#8B5E3C" stroke-width="1.3" opacity=".68" stroke-linecap="round"/>
    <path d="M-2,-12 C-4,-16 -2,-18 -1,-21" fill="none" stroke="#C68642" stroke-width="1.2" opacity=".64" stroke-linecap="round"/>
    <path d="M2,-12 C0,-15 3,-18 4,-20" fill="none" stroke="#C68642" stroke-width="1.2" opacity=".64" stroke-linecap="round"/>
  </g>

  <g transform="translate(1160,420)">
    <rect x="-14" y="-5" width="9" height="22" rx="2.2" fill="#CDB9A3" fill-opacity=".3" stroke="#8B5E3C" stroke-opacity=".68" stroke-width="1.3" stroke-linecap="round" transform="rotate(-18,-9,6)"/>
    <rect x="-4" y="-7" width="9" height="22" rx="2.2" fill="#E8D5B0" fill-opacity=".28" stroke="#8B5E3C" stroke-opacity=".68" stroke-width="1.3" stroke-linecap="round" transform="rotate(-6,0,4)"/>
    <rect x="6" y="-5" width="9" height="22" rx="2.2" fill="#CDB9A3" fill-opacity=".3" stroke="#8B5E3C" stroke-opacity=".68" stroke-width="1.3" stroke-linecap="round" transform="rotate(12,11,6)"/>
    <line x1="-11" y1="2" x2="-6" y2="11" stroke="#8B5E3C" stroke-width=".9" opacity=".63" stroke-linecap="round"/>
    <line x1="-1" y1="1" x2="3" y2="10" stroke="#8B5E3C" stroke-width=".9" opacity=".63" stroke-linecap="round"/>
    <line x1="9" y1="2" x2="13" y2="10" stroke="#8B5E3C" stroke-width=".9" opacity=".63" stroke-linecap="round"/>
  </g>

  <g transform="translate(38,380)">
    <rect x="-13" y="-5" width="8" height="20" rx="2" fill="#CDB9A3" fill-opacity=".28" stroke="#8B5E3C" stroke-opacity=".68" stroke-width="1.3" stroke-linecap="round" transform="rotate(-14,-9,5)"/>
    <rect x="-3" y="-6" width="8" height="20" rx="2" fill="#E8D5B0" fill-opacity=".27" stroke="#8B5E3C" stroke-opacity=".68" stroke-width="1.3" stroke-linecap="round" transform="rotate(-2,1,4)"/>
    <rect x="7" y="-5" width="8" height="20" rx="2" fill="#CDB9A3" fill-opacity=".28" stroke="#8B5E3C" stroke-opacity=".68" stroke-width="1.3" stroke-linecap="round" transform="rotate(11,11,5)"/>
    <line x1="-10" y1="2" x2="-6" y2="10" stroke="#8B5E3C" stroke-width=".9" opacity=".63" stroke-linecap="round"/>
    <line x1="0" y1="1" x2="3" y2="9" stroke="#8B5E3C" stroke-width=".9" opacity=".63" stroke-linecap="round"/>
    <line x1="10" y1="2" x2="13" y2="9" stroke="#8B5E3C" stroke-width=".9" opacity=".63" stroke-linecap="round"/>
  </g>

  <g transform="translate(175,120) rotate(15)">
    <ellipse cx="-5" cy="0" rx="7" ry="4.7" fill="#E8D5B0" fill-opacity=".25" stroke="#8B5E3C" stroke-opacity=".68" stroke-width="1.3" stroke-linecap="round"/>
    <path d="M-8,0 C-6,-3 -4,3 -2,0" fill="none" stroke="#8B5E3C" stroke-width=".9" opacity=".72" stroke-linecap="round"/>
    <ellipse cx="6" cy="1" rx="7" ry="4.7" fill="#F5ECD7" fill-opacity=".23" stroke="#8B5E3C" stroke-opacity=".68" stroke-width="1.3" stroke-linecap="round"/>
    <path d="M3,1 C5,-2 7,4 9,1" fill="none" stroke="#8B5E3C" stroke-width=".9" opacity=".72" stroke-linecap="round"/>
  </g>

  <g transform="translate(1040,50) rotate(-22)">
    <ellipse cx="0" cy="0" rx="7" ry="4.5" fill="#E8D5B0" fill-opacity=".24" stroke="#8B5E3C" stroke-opacity=".68" stroke-width="1.3" stroke-linecap="round"/>
    <path d="M-3,0 C-1,-3 1,3 3,0" fill="none" stroke="#8B5E3C" stroke-width=".9" opacity=".72" stroke-linecap="round"/>
  </g>

  <g transform="translate(340,700) rotate(32)">
    <ellipse cx="0" cy="0" rx="7" ry="4.8" fill="#F5ECD7" fill-opacity=".24" stroke="#8B5E3C" stroke-opacity=".68" stroke-width="1.3" stroke-linecap="round"/>
    <path d="M-3,0 C-1,-3 1,3 3,0" fill="none" stroke="#8B5E3C" stroke-width=".9" opacity=".7" stroke-linecap="round"/>
  </g>

  <g transform="translate(870,710) rotate(-12)">
    <ellipse cx="0" cy="0" rx="7" ry="4.8" fill="#E8D5B0" fill-opacity=".23" stroke="#8B5E3C" stroke-opacity=".68" stroke-width="1.3" stroke-linecap="round"/>
    <path d="M-3,0 C-1,-3 1,3 3,0" fill="none" stroke="#8B5E3C" stroke-width=".9" opacity=".7" stroke-linecap="round"/>
  </g>

  <g transform="translate(1110,310) rotate(18)">
    <ellipse cx="0" cy="0" rx="6" ry="4.1" fill="#F5ECD7" fill-opacity=".25" stroke="#8B5E3C" stroke-opacity=".68" stroke-width="1.2" stroke-linecap="round"/>
    <path d="M-2.4,0 C-1,-2 1,2 2.4,0" fill="none" stroke="#8B5E3C" stroke-width=".85" opacity=".72" stroke-linecap="round"/>
  </g>

  <path d="M0,-5 C2.7,-5 4.4,-2.6 4.2,-.4 C4,2.3 1.6,4.6 0,6 C-1.6,4.6 -4,2.3 -4.2,-.4 C-4.4,-2.6 -2.7,-5 0,-5Z"
        transform="translate(140,540)"
        fill="#E8D5B0" fill-opacity=".23" stroke="#C68642" stroke-opacity=".68" stroke-width="1.2" stroke-linecap="round" stroke-linejoin="round"/>

  <path d="M0,-4.2 C2.2,-4.2 3.7,-2.2 3.5,-.2 C3.3,1.8 1.3,3.8 0,5 C-1.3,3.8 -3.3,1.8 -3.5,-.2 C-3.7,-2.2 -2.2,-4.2 0,-4.2Z"
        transform="translate(700,55)"
        fill="#F5ECD7" fill-opacity=".22" stroke="#C68642" stroke-opacity=".68" stroke-width="1.2" stroke-linecap="round" stroke-linejoin="round"/>

  <path d="M0,-4.2 C2.2,-4.2 3.7,-2.2 3.5,-.2 C3.3,1.8 1.3,3.8 0,5 C-1.3,3.8 -3.3,1.8 -3.5,-.2 C-3.7,-2.2 -2.2,-4.2 0,-4.2Z"
        transform="translate(440,30)"
        fill="#E8D5B0" fill-opacity=".22" stroke="#C68642" stroke-opacity=".68" stroke-width="1.2" stroke-linecap="round" stroke-linejoin="round"/>

  <g transform="translate(1020,195) scale(.9)">
    <polygon points="0,-12 10,-6 10,6 0,12 -10,6 -10,-6" fill="none" stroke="#CDB9A3" stroke-width="1.4" opacity=".72" stroke-linecap="round" stroke-linejoin="round"/>
    <polygon points="13,-3 21,1 21,9 13,13 5,9 5,1" fill="none" stroke="#A9B99A" stroke-width="1.2" opacity=".64" stroke-linecap="round" stroke-linejoin="round"/>
  </g>

  <g transform="translate(200,690) scale(.75)">
    <polygon points="0,-12 10,-6 10,6 0,12 -10,6 -10,-6" fill="none" stroke="#8B5E3C" stroke-width="1.4" opacity=".68" stroke-linecap="round" stroke-linejoin="round"/>
    <polygon points="-13,-3 -5,1 -5,9 -13,13 -21,9 -21,1" fill="none" stroke="#CDB9A3" stroke-width="1.2" opacity=".64" stroke-linecap="round" stroke-linejoin="round"/>
  </g>

  <g transform="translate(490,720) scale(.6)">
    <polygon points="0,-12 10,-6 10,6 0,12 -10,6 -10,-6" fill="none" stroke="#A9B99A" stroke-width="1.4" opacity=".66" stroke-linecap="round" stroke-linejoin="round"/>
    <polygon points="13,-3 21,1 21,9 13,13 5,9 5,1" fill="none" stroke="#CDB9A3" stroke-width="1.2" opacity=".62" stroke-linecap="round" stroke-linejoin="round"/>
    <polygon points="-13,-3 -5,1 -5,9 -13,13 -21,9 -21,1" fill="none" stroke="#C68642" stroke-width="1.2" opacity=".62" stroke-linecap="round" stroke-linejoin="round"/>
  </g>

  <g transform="translate(1175,560) scale(.7)">
    <polygon points="0,-12 10,-6 10,6 0,12 -10,6 -10,-6" fill="none" stroke="#CDB9A3" stroke-width="1.4" opacity=".68" stroke-linecap="round" stroke-linejoin="round"/>
    <polygon points="13,-3 21,1 21,9 13,13 5,9 5,1" fill="none" stroke="#A9B99A" stroke-width="1.2" opacity=".62" stroke-linecap="round" stroke-linejoin="round"/>
  </g>

  <g transform="translate(60,290) rotate(-20) scale(.75)">
    <ellipse cx="-5" cy="0" rx="7" ry="4.8" fill="#E8D5B0" fill-opacity=".24" stroke="#8B5E3C" stroke-opacity=".68" stroke-width="1.3" stroke-linecap="round"/>
    <path d="M-8,0 C-6,-3 -4,3 -2,0" fill="none" stroke="#8B5E3C" stroke-width=".9" opacity=".72" stroke-linecap="round"/>
    <ellipse cx="6" cy="1" rx="7" ry="4.8" fill="#F5ECD7" fill-opacity=".22" stroke="#8B5E3C" stroke-opacity=".68" stroke-width="1.3" stroke-linecap="round"/>
    <path d="M3,1 C5,-2 7,4 9,1" fill="none" stroke="#8B5E3C" stroke-width=".9" opacity=".72" stroke-linecap="round"/>
  </g>

  <g transform="translate(330,80) scale(.9)">
    <rect x="-11" y="-12" width="22" height="24" rx="2" fill="#F5ECD7" fill-opacity=".25" stroke="#8B5E3C" stroke-opacity=".68" stroke-width="1.4" stroke-linecap="round" stroke-linejoin="round"/>
    <rect x="-11" y="-12" width="3.8" height="24" rx="1" fill="#CDB9A3" fill-opacity=".24" stroke="#8B5E3C" stroke-opacity=".68" stroke-width="1.2" stroke-linecap="round"/>
    <line x1="-4" y1="-4" x2="7" y2="-4" stroke="#8B5E3C" stroke-width=".9" opacity=".66" stroke-linecap="round"/>
    <line x1="-4" y1="1" x2="7" y2="1" stroke="#8B5E3C" stroke-width=".9" opacity=".66" stroke-linecap="round"/>
    <line x1="-4" y1="6" x2="7" y2="6" stroke="#8B5E3C" stroke-width=".9" opacity=".66" stroke-linecap="round"/>
  </g>

  <path transform="translate(905,55) scale(.75)"
    d="M0,-4.5 C2.4,-4.5 4,-2.3 3.8,-.2 C3.6,2 1.4,4.2 0,5.5 C-1.4,4.2 -3.6,2 -3.8,-.2 C-4,-2.3 -2.4,-4.5 0,-4.5Z"
    fill="#E8D5B0" fill-opacity=".23" stroke="#C68642" stroke-opacity=".68" stroke-width="1.2" stroke-linecap="round" stroke-linejoin="round"/>

  <path transform="translate(55,480) scale(.8)"
    d="M0,-4.5 C2.4,-4.5 4,-2.3 3.8,-.2 C3.6,2 1.4,4.2 0,5.5 C-1.4,4.2 -3.6,2 -3.8,-.2 C-4,-2.3 -2.4,-4.5 0,-4.5Z"
    fill="#F5ECD7" fill-opacity=".22" stroke="#C68642" stroke-opacity=".68" stroke-width="1.2" stroke-linecap="round" stroke-linejoin="round"/>

  <g transform="translate(1140,640) scale(.85)">
    <rect x="-11" y="-12" width="22" height="24" rx="2" fill="#F5ECD7" fill-opacity=".25" stroke="#8B5E3C" stroke-opacity=".68" stroke-width="1.4" stroke-linecap="round" stroke-linejoin="round"/>
    <rect x="-11" y="-12" width="3.8" height="24" rx="1" fill="#CDB9A3" fill-opacity=".24" stroke="#8B5E3C" stroke-opacity=".68" stroke-width="1.2" stroke-linecap="round"/>
    <line x1="-4" y1="-4" x2="7" y2="-4" stroke="#8B5E3C" stroke-width=".9" opacity=".66" stroke-linecap="round"/>
    <line x1="-4" y1="1" x2="7" y2="1" stroke="#8B5E3C" stroke-width=".9" opacity=".66" stroke-linecap="round"/>
    <line x1="-4" y1="6" x2="7" y2="6" stroke="#8B5E3C" stroke-width=".9" opacity=".66" stroke-linecap="round"/>
  </g>

  <g transform="translate(760,738) rotate(-35) scale(.7)">
    <rect x="-2" y="-24" width="4" height="20" rx="2" fill="#CDB9A3" fill-opacity=".25" stroke="#8B5E3C" stroke-opacity=".68" stroke-width="1.3" stroke-linecap="round"/>
    <ellipse cx="0" cy="2" rx="7" ry="10" fill="#E8D5B0" fill-opacity=".27" stroke="#8B5E3C" stroke-opacity=".68" stroke-width="1.4" stroke-linecap="round"/>
    <path d="M-2,-1 C0,-3 2,0 2,3" fill="none" stroke="#CDB9A3" stroke-width=".9" opacity=".64" stroke-linecap="round"/>
  </g>

  <circle cx="148" cy="35"   r="4"   fill="#C68642" opacity=".23"/>
  <circle cx="1068" cy="145" r="3.5" fill="#C68642" opacity=".24"/>
  <circle cx="490" cy="18"   r="3"   fill="#C68642" opacity=".22"/>
  <circle cx="720" cy="742"  r="4"   fill="#C68642" opacity=".25"/>
  <circle cx="1195" cy="220" r="3"   fill="#C68642" opacity=".22"/>
  <circle cx="25" cy="600"   r="3.5" fill="#C68642" opacity=".24"/>
  <circle cx="960" cy="745"  r="3"   fill="#C68642" opacity=".23"/>

  <g transform="translate(1045,718)" opacity=".62">
    <ellipse cx="-8" cy="0" rx="8" ry="5" fill="#A9B99A" opacity=".29" transform="rotate(-30,-8,0)"/>
    <ellipse cx="0" cy="-6" rx="8" ry="5" fill="#8BA67A" opacity=".27" transform="rotate(10,0,-6)"/>
    <ellipse cx="8" cy="2"  rx="8" ry="5" fill="#A9B99A" opacity=".29" transform="rotate(40,8,2)"/>
    <circle cx="0" cy="0" r="4" fill="#8BA67A" opacity=".25"/>
  </g>

  <g transform="translate(158,728)" opacity=".6">
    <ellipse cx="-7" cy="0" rx="7" ry="4.5" fill="#A9B99A" opacity=".29" transform="rotate(-25,-7,0)"/>
    <ellipse cx="0" cy="-5" rx="7" ry="4.5" fill="#8BA67A" opacity=".27" transform="rotate(15,0,-5)"/>
    <ellipse cx="7" cy="2"  rx="7" ry="4.5" fill="#A9B99A" opacity=".29" transform="rotate(45,7,2)"/>
    <circle cx="0" cy="0" r="3.5" fill="#8BA67A" opacity=".25"/>
  </g>

  <g transform="translate(470,62)" opacity=".66">
    <line x1="-7" y1="0" x2="7" y2="0" stroke="#CDB9A3" stroke-width="1.4" stroke-linecap="round"/>
    <line x1="0" y1="-7" x2="0" y2="7" stroke="#CDB9A3" stroke-width="1.4" stroke-linecap="round"/>
  </g>

  <g transform="translate(840,40)" opacity=".7">
    <line x1="-6" y1="0" x2="6" y2="0" stroke="#8B5E3C" stroke-width="1.4" stroke-linecap="round"/>
    <line x1="0" y1="-6" x2="0" y2="6" stroke="#8B5E3C" stroke-width="1.4" stroke-linecap="round"/>
  </g>

  <g transform="translate(1130,490)" opacity=".64">
    <line x1="-6" y1="0" x2="6" y2="0" stroke="#A9B99A" stroke-width="1.4" stroke-linecap="round"/>
    <line x1="0" y1="-6" x2="0" y2="6" stroke="#A9B99A" stroke-width="1.4" stroke-linecap="round"/>
  </g>

  <g transform="translate(28,155)" opacity=".65">
    <line x1="-5" y1="0" x2="5" y2="0" stroke="#C68642" stroke-width="1.3" stroke-linecap="round"/>
    <line x1="0" y1="-5" x2="0" y2="5" stroke="#C68642" stroke-width="1.3" stroke-linecap="round"/>
  </g>
</svg>
