<svg id="deco-layer"
     style="position:fixed;top:0;left:0;width:100%;height:100%;pointer-events:none;z-index:3"
     viewBox="0 0 1200 760" preserveAspectRatio="xMidYMid slice"
     xmlns="http://www.w3.org/2000/svg">

  <g transform="translate(78,72)">
    <circle cx="0" cy="-16" r="11" fill="#83C5BE" opacity=".68"/>
    <circle cx="13.9" cy="-8" r="11" fill="#83C5BE" opacity=".68"/>
    <circle cx="13.9" cy="8"  r="11" fill="#83C5BE" opacity=".68"/>
    <circle cx="0"   cy="16" r="11" fill="#83C5BE" opacity=".68"/>
    <circle cx="-13.9" cy="8" r="11" fill="#83C5BE" opacity=".68"/>
    <circle cx="-13.9" cy="-8" r="11" fill="#83C5BE" opacity=".68"/>
    <circle cx="0" cy="0" r="9" fill="#006D77" opacity=".52"/>
  </g>
  <g transform="translate(44,165)">
    <circle cx="0" cy="-11" r="8" fill="#CDECEC" opacity=".75"/>
    <circle cx="9.5" cy="-5.5" r="8" fill="#CDECEC" opacity=".75"/>
    <circle cx="9.5" cy="5.5"  r="8" fill="#CDECEC" opacity=".75"/>
    <circle cx="0"   cy="11"  r="8" fill="#CDECEC" opacity=".75"/>
    <circle cx="-9.5" cy="5.5" r="8" fill="#CDECEC" opacity=".75"/>
    <circle cx="-9.5" cy="-5.5" r="8" fill="#CDECEC" opacity=".75"/>
    <circle cx="0" cy="0" r="7" fill="#5E7B80" opacity=".44"/>
  </g>
  <g transform="translate(258,36)">
    <circle cx="0" cy="-9" r="6.5" fill="#FFDDD2" opacity=".58"/>
    <circle cx="7.8" cy="-4.5" r="6.5" fill="#FFDDD2" opacity=".58"/>
    <circle cx="7.8" cy="4.5"  r="6.5" fill="#FFDDD2" opacity=".58"/>
    <circle cx="0"   cy="9"   r="6.5" fill="#FFDDD2" opacity=".58"/>
    <circle cx="-7.8" cy="4.5" r="6.5" fill="#FFDDD2" opacity=".58"/>
    <circle cx="-7.8" cy="-4.5" r="6.5" fill="#FFDDD2" opacity=".58"/>
    <circle cx="0" cy="0" r="5.5" fill="#E29578" opacity=".42"/>
  </g>
  <g transform="translate(1148,88)">
    <circle cx="0" cy="-14" r="10" fill="#83C5BE" opacity=".64"/>
    <circle cx="12.1" cy="-7" r="10" fill="#83C5BE" opacity=".64"/>
    <circle cx="12.1" cy="7"  r="10" fill="#83C5BE" opacity=".64"/>
    <circle cx="0"   cy="14" r="10" fill="#83C5BE" opacity=".64"/>
    <circle cx="-12.1" cy="7" r="10" fill="#83C5BE" opacity=".64"/>
    <circle cx="-12.1" cy="-7" r="10" fill="#83C5BE" opacity=".64"/>
    <circle cx="0" cy="0" r="8" fill="#006D77" opacity=".5"/>
  </g>
  <g transform="translate(95,668)">
    <circle cx="0" cy="-13" r="9" fill="#DDF3F1" opacity=".7"/>
    <circle cx="11.3" cy="-6.5" r="9" fill="#DDF3F1" opacity=".7"/>
    <circle cx="11.3" cy="6.5"  r="9" fill="#DDF3F1" opacity=".7"/>
    <circle cx="0"   cy="13"  r="9" fill="#DDF3F1" opacity=".7"/>
    <circle cx="-11.3" cy="6.5" r="9" fill="#DDF3F1" opacity=".7"/>
    <circle cx="-11.3" cy="-6.5" r="9" fill="#DDF3F1" opacity=".7"/>
    <circle cx="0" cy="0" r="8" fill="#006D77" opacity=".42"/>
  </g>
  <g transform="translate(1085,695)">
    <circle cx="0" cy="-10" r="7" fill="#FFDDD2" opacity=".62"/>
    <circle cx="8.7" cy="-5" r="7" fill="#FFDDD2" opacity=".62"/>
    <circle cx="8.7" cy="5"  r="7" fill="#FFDDD2" opacity=".62"/>
    <circle cx="0"   cy="10" r="7" fill="#FFDDD2" opacity=".62"/>
    <circle cx="-8.7" cy="5" r="7" fill="#FFDDD2" opacity=".62"/>
    <circle cx="-8.7" cy="-5" r="7" fill="#FFDDD2" opacity=".62"/>
    <circle cx="0" cy="0" r="6" fill="#8C5B4D" opacity=".46"/>
  </g>
  <g transform="translate(590,738)">
    <circle cx="0" cy="-9" r="6.5" fill="#CDECEC" opacity=".6"/>
    <circle cx="7.8" cy="-4.5" r="6.5" fill="#CDECEC" opacity=".6"/>
    <circle cx="7.8" cy="4.5"  r="6.5" fill="#CDECEC" opacity=".6"/>
    <circle cx="0"   cy="9"   r="6.5" fill="#CDECEC" opacity=".6"/>
    <circle cx="-7.8" cy="4.5" r="6.5" fill="#CDECEC" opacity=".6"/>
    <circle cx="-7.8" cy="-4.5" r="6.5" fill="#CDECEC" opacity=".6"/>
    <circle cx="0" cy="0" r="5.5" fill="#5E7B80" opacity=".42"/>
  </g>

  <g transform="translate(1160,420)">
    <ellipse cx="0" cy="-10" rx="5.5" ry="10" fill="#83C5BE" opacity=".56"/>
    <ellipse cx="10" cy="0"  rx="10" ry="5.5" fill="#83C5BE" opacity=".56"/>
    <ellipse cx="0" cy="10"  rx="5.5" ry="10" fill="#83C5BE" opacity=".56"/>
    <ellipse cx="-10" cy="0" rx="10" ry="5.5" fill="#83C5BE" opacity=".56"/>
    <circle cx="0" cy="0" r="5" fill="#006D77" opacity=".38"/>
  </g>
  <g transform="translate(38,380)">
    <ellipse cx="0" cy="-9" rx="5" ry="9" fill="#FFDDD2" opacity=".62"/>
    <ellipse cx="9" cy="0"  rx="9" ry="5" fill="#FFDDD2" opacity=".62"/>
    <ellipse cx="0" cy="9"  rx="5" ry="9" fill="#FFDDD2" opacity=".62"/>
    <ellipse cx="-9" cy="0" rx="9" ry="5" fill="#FFDDD2" opacity=".62"/>
    <circle cx="0" cy="0" r="4.5" fill="#E29578" opacity=".4"/>
  </g>

  <g transform="translate(175,120)">
    <circle cx="-7" cy="-1" r="4.2" fill="#CDECEC" opacity=".68"/>
    <circle cx="0" cy="-5.8" r="4.8" fill="#83C5BE" opacity=".7"/>
    <circle cx="7" cy="-1" r="4.2" fill="#DDF3F1" opacity=".66"/>
    <circle cx="-3" cy="5.8" r="3.6" fill="#EDF6F9" opacity=".62"/>
    <circle cx="4" cy="5.3" r="3.1" fill="#CDECEC" opacity=".58"/>
  </g>
  <g transform="translate(1040,50)">
    <circle cx="-5.5" cy="-1" r="3.6" fill="#CDECEC" opacity=".64"/>
    <circle cx="0" cy="-4.8" r="4.2" fill="#83C5BE" opacity=".68"/>
    <circle cx="5.5" cy="-1" r="3.6" fill="#DDF3F1" opacity=".64"/>
    <circle cx="-2.4" cy="4.4" r="2.9" fill="#EDF6F9" opacity=".6"/>
    <circle cx="3.2" cy="4.1" r="2.5" fill="#CDECEC" opacity=".56"/>
  </g>
  <g transform="translate(340,700)">
    <circle cx="-4.2" cy="-1" r="2.9" fill="#CDECEC" opacity=".6"/>
    <circle cx="0" cy="-3.4" r="3.3" fill="#83C5BE" opacity=".63"/>
    <circle cx="4.2" cy="-1" r="2.9" fill="#DDF3F1" opacity=".6"/>
    <circle cx="-1.8" cy="3.1" r="2.3" fill="#EDF6F9" opacity=".56"/>
    <circle cx="2.4" cy="2.9" r="1.9" fill="#CDECEC" opacity=".53"/>
  </g>
  <g transform="translate(870,710)">
    <circle cx="-6" cy="-1" r="3.9" fill="#FFDDD2" opacity=".62"/>
    <circle cx="0" cy="-5" r="4.5" fill="#E29578" opacity=".6"/>
    <circle cx="6" cy="-1" r="3.9" fill="#FFF4EF" opacity=".64"/>
    <circle cx="-2.6" cy="4.7" r="3" fill="#FFDDD2" opacity=".57"/>
    <circle cx="3.3" cy="4.3" r="2.6" fill="#E29578" opacity=".5"/>
  </g>
  <g transform="translate(1110,310)">
    <circle cx="-3.7" cy="-.6" r="2.5" fill="#CDECEC" opacity=".62"/>
    <circle cx="0" cy="-3" r="2.9" fill="#83C5BE" opacity=".66"/>
    <circle cx="3.7" cy="-.6" r="2.5" fill="#DDF3F1" opacity=".62"/>
    <circle cx="-1.5" cy="2.7" r="2" fill="#EDF6F9" opacity=".56"/>
    <circle cx="2" cy="2.4" r="1.7" fill="#CDECEC" opacity=".52"/>
  </g>
  <g transform="translate(140,540)">
    <circle cx="-5" cy="-.8" r="3.2" fill="#FFDDD2" opacity=".62"/>
    <circle cx="0" cy="-4" r="3.8" fill="#E29578" opacity=".6"/>
    <circle cx="5" cy="-.8" r="3.2" fill="#FFF4EF" opacity=".64"/>
    <circle cx="-2.1" cy="3.7" r="2.6" fill="#FFDDD2" opacity=".56"/>
    <circle cx="2.8" cy="3.4" r="2.2" fill="#E29578" opacity=".5"/>
  </g>
  <g transform="translate(700,55)">
    <circle cx="-3" cy="-.5" r="2.1" fill="#CDECEC" opacity=".58"/>
    <circle cx="0" cy="-2.5" r="2.5" fill="#83C5BE" opacity=".62"/>
    <circle cx="3" cy="-.5" r="2.1" fill="#DDF3F1" opacity=".58"/>
    <circle cx="-1.2" cy="2.2" r="1.7" fill="#EDF6F9" opacity=".53"/>
    <circle cx="1.6" cy="2" r="1.4" fill="#CDECEC" opacity=".5"/>
  </g>
  <g transform="translate(440,30)">
    <circle cx="-3.9" cy="-.7" r="2.6" fill="#FFDDD2" opacity=".6"/>
    <circle cx="0" cy="-3.1" r="3" fill="#E29578" opacity=".58"/>
    <circle cx="3.9" cy="-.7" r="2.6" fill="#FFF4EF" opacity=".62"/>
    <circle cx="-1.6" cy="2.8" r="2.1" fill="#FFDDD2" opacity=".54"/>
    <circle cx="2.2" cy="2.5" r="1.8" fill="#E29578" opacity=".48"/>
  </g>

  <polygon transform="translate(1020,195) scale(.9)"
    points="0,-13 3.1,-4.2 12.4,-3.8 5.0,2.0 7.6,11.2 0,6.5 -7.6,11.2 -5.0,2.0 -12.4,-3.8 -3.1,-4.2"
    fill="none" stroke="#CDECEC" stroke-width="1.8" opacity=".74"/>
  <polygon transform="translate(200,690) scale(.75)"
    points="0,-13 3.1,-4.2 12.4,-3.8 5.0,2.0 7.6,11.2 0,6.5 -7.6,11.2 -5.0,2.0 -12.4,-3.8 -3.1,-4.2"
    fill="none" stroke="#83C5BE" stroke-width="1.6" opacity=".62"/>
  <polygon transform="translate(490,720) scale(.6)"
    points="0,-13 3.1,-4.2 12.4,-3.8 5.0,2.0 7.6,11.2 0,6.5 -7.6,11.2 -5.0,2.0 -12.4,-3.8 -3.1,-4.2"
    fill="none" stroke="#DDF3F1" stroke-width="1.5" opacity=".56"/>
  <polygon transform="translate(1175,560) scale(.7)"
    points="0,-13 3.1,-4.2 12.4,-3.8 5.0,2.0 7.6,11.2 0,6.5 -7.6,11.2 -5.0,2.0 -12.4,-3.8 -3.1,-4.2"
    fill="none" stroke="#83C5BE" stroke-width="1.5" opacity=".62"/>
  <polygon transform="translate(60,290) scale(.65)"
    points="0,-13 3.1,-4.2 12.4,-3.8 5.0,2.0 7.6,11.2 0,6.5 -7.6,11.2 -5.0,2.0 -12.4,-3.8 -3.1,-4.2"
    fill="none" stroke="#CDECEC" stroke-width="1.5" opacity=".66"/>

  <path transform="translate(330,80) scale(.9)"
    d="M0,9 C-9,5 -10,-5 -2,-11 C0,-12 2,-12 4,-11 C12,-5 11,5 2,9 C1,9 0,9 0,9 Z"
    fill="none" stroke="#E29578" stroke-width="2" opacity=".68"/>
  <path transform="translate(905,55) scale(.75)"
    d="M0,9 C-9,5 -10,-5 -2,-11 C0,-12 2,-12 4,-11 C12,-5 11,5 2,9 C1,9 0,9 0,9 Z"
    fill="none" stroke="#FFDDD2" stroke-width="1.9" opacity=".64"/>
  <path transform="translate(55,480) scale(.8)"
    d="M0,9 C-9,5 -10,-5 -2,-11 C0,-12 2,-12 4,-11 C12,-5 11,5 2,9 C1,9 0,9 0,9 Z"
    fill="none" stroke="#8C5B4D" stroke-width="1.8" opacity=".46"/>
  <path transform="translate(1140,640) scale(.85)"
    d="M0,9 C-9,5 -10,-5 -2,-11 C0,-12 2,-12 4,-11 C12,-5 11,5 2,9 C1,9 0,9 0,9 Z"
    fill="none" stroke="#E29578" stroke-width="1.8" opacity=".58"/>
  <path transform="translate(760,738) scale(.7)"
    d="M0,9 C-9,5 -10,-5 -2,-11 C0,-12 2,-12 4,-11 C12,-5 11,5 2,9 C1,9 0,9 0,9 Z"
    fill="none" stroke="#FFDDD2" stroke-width="1.7" opacity=".54"/>

  <circle cx="148" cy="35"   r="4"   fill="#83C5BE" opacity=".55"/>
  <circle cx="1068" cy="145" r="3.5" fill="#5E7B80" opacity=".58"/>
  <circle cx="490" cy="18"   r="3"   fill="#FFDDD2" opacity=".52"/>
  <circle cx="720" cy="742"  r="4"   fill="#006D77" opacity=".34"/>
  <circle cx="1195" cy="220" r="3"   fill="#CDECEC" opacity=".64"/>
  <circle cx="25" cy="600"   r="3.5" fill="#83C5BE" opacity=".48"/>
  <circle cx="960" cy="745"  r="3"   fill="#E29578" opacity=".48"/>

  <g transform="translate(1045,718)" opacity=".6">
    <ellipse cx="-9" cy="0" rx="9" ry="4.8" fill="#83C5BE" opacity=".65" transform="rotate(-30,-9,0)"/>
    <ellipse cx="-1" cy="-7" rx="9" ry="4.8" fill="#CDECEC" opacity=".62" transform="rotate(8,-1,-7)"/>
    <ellipse cx="9" cy="1"  rx="9" ry="4.8" fill="#67B5AE" opacity=".65" transform="rotate(40,9,1)"/>
    <circle cx="0" cy="0" r="4" fill="#006D77" opacity=".38"/>
  </g>
  <g transform="translate(158,728)" opacity=".55">
    <ellipse cx="-8" cy="0" rx="8" ry="4.4" fill="#83C5BE" opacity=".64" transform="rotate(-25,-8,0)"/>
    <ellipse cx="0" cy="-6" rx="8" ry="4.4" fill="#CDECEC" opacity=".6" transform="rotate(14,0,-6)"/>
    <ellipse cx="8" cy="2"  rx="8" ry="4.4" fill="#67B5AE" opacity=".64" transform="rotate(45,8,2)"/>
    <circle cx="0" cy="0" r="3.5" fill="#006D77" opacity=".34"/>
  </g>

  <g transform="translate(470,62)" opacity=".5">
    <line x1="-7" y1="0" x2="7" y2="0" stroke="#83C5BE" stroke-width="2" stroke-linecap="round"/>
    <line x1="0" y1="-7" x2="0" y2="7" stroke="#83C5BE" stroke-width="2" stroke-linecap="round"/>
  </g>
  <g transform="translate(840,40)" opacity=".45">
    <line x1="-6" y1="0" x2="6" y2="0" stroke="#CDECEC" stroke-width="2" stroke-linecap="round"/>
    <line x1="0" y1="-6" x2="0" y2="6" stroke="#CDECEC" stroke-width="2" stroke-linecap="round"/>
  </g>
  <g transform="translate(1130,490)" opacity=".5">
    <line x1="-6" y1="0" x2="6" y2="0" stroke="#83C5BE" stroke-width="2" stroke-linecap="round"/>
    <line x1="0" y1="-6" x2="0" y2="6" stroke="#83C5BE" stroke-width="2" stroke-linecap="round"/>
  </g>
  <g transform="translate(28,155)" opacity=".45">
    <line x1="-5" y1="0" x2="5" y2="0" stroke="#006D77" stroke-width="1.8" stroke-linecap="round"/>
    <line x1="0" y1="-5" x2="0" y2="5" stroke="#006D77" stroke-width="1.8" stroke-linecap="round"/>
  </g>
</svg>
